#!OML:ASF I:\Actors\actors\Patient Classification 2\Patient 1\Session 1\actor1.ASF
:FULLY-SPECIFIED
:DEGREES
242
root -1.0544 18.6629 5.45898 0.705845 2.87339 -0.0667251
lowerback 12.6571 -0.173059 9.47484
upperback 3.76108 1.09626 3.44919
thorax -3.00861 0.528119 -1.86848
lowerneck -8.58125 -5.54386 -2.5612
upperneck 24.4829 -7.08735 -0.782716
head 9.14992 -3.59811 -0.564439
rclavicle 5.56597e-015 3.18055e-015
rhumerus 25.3566 21.5293 -50.0241
rradius 49.379
rwrist 50.5057
rhand -19.3801 -39.0297
rfingers 7.12502
rthumb 6.93826 -68.896
lclavicle 5.56597e-015 3.18055e-015
lhumerus -20.3088 -18.6529 85.4588
lradius 84.7763
lwrist 24.2741
lhand -15.9813 -25.0831
lfingers 7.12502
lthumb 10.2182 4.64877
rfemur 7.5249 -0.0400291 15.768
rtibia -4.77083e-015
rfoot -17.4986 -15.1005
rtoes -8.37803
lfemur -9.18084 -3.94759 -13.3365
ltibia 24.8603
lfoot -17.3887 6.9851
ltoes -58.7456
243
root -1.06642 18.6649 5.44872 0.883684 3.2412 0.037764
lowerback 12.8188 -0.172559 9.57137
upperback 3.80553 1.12869 3.48954
thorax -3.04493 0.543967 -1.88556
lowerneck -8.58745 -5.67592 -3.00924
upperneck 24.3042 -7.28448 -0.37151
head 9.12774 -3.68628 -0.370222
rclavicle 5.56597e-015 7.4743e-014
rhumerus 25.2498 20.8339 -50.2484
rradius 49.2151
rwrist 51.037
rhand -19.225 -39.0803
rfingers 7.12502
rthumb 7.08793 -68.9416
lclavicle 5.56597e-015 7.4743e-014
lhumerus -20.6581 -18.9361 85.7275
lradius 85.1223
lwrist 24.445
lhand -16.1532 -25.0922
lfingers 7.12502
lthumb 10.0523 4.64771
rfemur 5.92598 -0.418846 15.653
rtibia 2.89582
rfoot -18.6678 -14.1648
rtoes -7.71607
lfemur -9.50379 -3.97076 -13.3885
ltibia 24.8504
lfoot -17.1673 6.76822
ltoes -58.7612
244
root -1.07667 18.6663 5.44144 1.01912 3.56455 0.167045
lowerback 12.9646 -0.135496 9.65261
upperback 3.86482 1.20417 3.53127
thorax -3.05268 0.582558 -1.89899
lowerneck -8.60676 -5.83671 -3.43901
upperneck 24.1836 -7.4964 -0.0774715
head 9.12474 -3.79121 -0.222231
rclavicle 1.39149e-014 -1.59028e-015
rhumerus 25.7132 20.2834 -49.7916
rradius 48.7593
rwrist 50.6166
rhand -19.266 -39.2037
rfingers 7.12502
rthumb 7.04836 -69.0664
lclavicle 1.39149e-014 -1.59028e-015
lhumerus -20.9057 -19.1603 86.0895
lradius 85.382
lwrist 24.596
lhand -16.1531 -25.185
lfingers 7.12502
lthumb 10.0524 4.55488
rfemur 5.23357 -0.752888 15.5317
rtibia 4.08627
rfoot -19.0845 -13.802
rtoes -7.46003
lfemur -9.75633 -4.09534 -13.4898
ltibia 24.8668
lfoot -17.0475 6.67488
ltoes -58.7395
245
root -1.08617 18.6702 5.43689 1.16042 3.85177 0.268991
lowerback 13.0715 -0.121031 9.74862
upperback 3.90385 1.24796 3.55744
thorax -3.06295 0.604888 -1.93201
lowerneck -8.5733 -5.95658 -3.6426
upperneck 24.0384 -7.63129 -0.0425433
head 9.08167 -3.86795 -0.187917
rclavicle -8.74653e-015 -1.27222e-014
rhumerus 26.1522 19.7805 -49.493
rradius 48.2971
rwrist 49.9928
rhand -19.4808 -39.3678
rfingers 7.12502
rthumb 6.84107 -69.2373
lclavicle -8.74653e-015 -1.27222e-014
lhumerus -21.1367 -19.2682 86.4108
lradius 85.578
lwrist 24.8336
lhand -16.1648 -25.189
lfingers 7.12502
lthumb 10.0412 4.55147
rfemur 4.75394 -1.05221 15.4492
rtibia 4.81855
rfoot -19.3148 -13.6376
rtoes -7.5528
lfemur -10.0066 -4.20338 -13.5585
ltibia 24.9064
lfoot -16.9789 6.5671
ltoes -58.6785
246
root -1.09422 18.6735 5.43205 1.27567 4.19722 0.306816
lowerback 13.2045 -0.175102 9.91564
upperback 3.90814 1.21728 3.56838
thorax -3.1296 0.587278 -2.00956
lowerneck -8.47931 -6.00324 -3.74496
upperneck 23.9209 -7.69196 0.0189625
head 9.03202 -3.89908 -0.151512
rclavicle -1.82882e-014 1.74931e-014
rhumerus 26.2546 19.1285 -49.8053
rradius 47.9868
rwrist 50.0535
rhand -19.4714 -39.4347
rfingers 7.12502
rthumb 6.8501 -69.3038
lclavicle -1.82882e-014 1.74931e-014
lhumerus -21.4173 -19.3456 86.5922
lradius 85.8238
lwrist 25.168
lhand -16.2668 -25.2204
lfingers 7.12502
lthumb 9.94279 4.52482
rfemur 4.42949 -1.40702 15.4371
rtibia 5.29493
rfoot -19.5031 -13.4796
rtoes -7.24683
lfemur -10.2501 -4.26587 -13.5472
ltibia 24.9475
lfoot -16.8749 6.32813
ltoes -58.5641
247
root -1.09998 18.6748 5.42751 1.3134 4.62286 0.323838
lowerback 13.3677 -0.265979 10.1134
upperback 3.9354 1.14613 3.59778
thorax -3.19236 0.550543 -2.07839
lowerneck -8.37665 -6.02921 -3.82452
upperneck 23.7922 -7.72914 0.0849518
head 8.9756 -3.91695 -0.114281
rclavicle 6.75868e-015 -3.65764e-014
rhumerus 25.5817 18.0892 -51.1167
rradius 47.9928
rwrist 51.1879
rhand -19.4077 -39.3986
rfingers 7.12502
rthumb 6.91164 -69.2658
lclavicle 6.75868e-015 -3.65764e-014
lhumerus -21.6036 -19.3948 86.7389
lradius 86.0463
lwrist 25.3876
lhand -16.3431 -25.3822
lfingers 7.12502
lthumb 9.8691 4.36646
rfemur 4.2657 -1.83495 15.4408
rtibia 5.65296
rfoot -19.631 -13.3464
rtoes -6.9931
lfemur -10.4181 -4.33881 -13.529
ltibia 24.9715
lfoot -16.6871 6.10497
ltoes -58.6238
